<svg xmlns="http://www.w3.org/2000/svg" version="1.1" xmlns:xlink="http://www.w3.org/1999/xlink" xmlns:svgjs="http://svgjs.dev/svgjs" width="100%" height="100%" viewBox="0 0 1000 600"><rect width="1000" height="600" x="0" y="0" fill="#533549"/><g><circle r="166.66666666666666" cx="629.7421061197916" cy="560.8276790113448" fill="#f6b042" transform="matrix(0.33607679354732556,0,0,0.33607679354732556,-20.33524164763836,111.51882217056165)"/><path d="M529.5599645880415 543.5235002163286L529.5599645880415 543.5235002163286L432.4466445085186 533.2173371944598L531.1504218445027 533.2173371944598Q530.0052926198506 537.797854093068 529.5599645880415 543.5235002163286ZM438.8402826794927 511.23721791016555L537.3213959995722 511.23721791016555L533.886008325616 521.3207169161298L438.8402826794927 511.23721791016555ZM434.51423894191817 555.2292656238833L529.5599645880415 555.2292656238833Q530.0052926198506 561.4002397789528 531.3730858604073 565.5354286457521L531.3730858604073 565.5354286457521L434.51423894191817 555.2292656238833ZM561.6235828782999 587.5155479300462L561.6235828782999 587.5155479300462L440.4625490810832 577.2093849081774L539.1663264170672 577.2093849081774Q546.7369029578227 584.5254882878991 561.6235828782999 587.5155479300462ZM456.01722104927404 489.2570986258713L554.4983343693536 489.2570986258713Q549.2498254230316 492.6924862998276 544.4466445085186 498.64079643899254L544.4466445085186 498.64079643899254L456.01722104927404 489.2570986258713ZM518.7766643892343 609.273003198436L436.55002423018857 599.1895041924716L522.2120520631905 599.1895041924716L518.7766643892343 609.273003198436ZM511.4605610095126 631.4757864986346L432.6693085244232 621.3922874926706L514.8959486834689 621.3922874926706L511.4605610095126 631.4757864986346ZM519.2538015661727 629.8853292421735L532.0728870532502 592.0960648286547Q551.3174198564311 597.3445737749768 567.2219924210434 597.3445737749768Q583.1265649856557 597.3445737749768 593.21006399162 595.9767805344201L593.21006399162 595.9767805344201L595.054994409115 584.5254882878991L576.0331256218386 582.7123670155332Q554.275670353449 580.6447725821337 545.2418731367492 572.8515320254736Q536.1762667749201 565.0582914688136 536.1762667749201 550.8714127411795L536.1762667749201 550.8714127411795Q536.1762667749201 544.6686294409806 537.5758691606061 537.1298620453545L537.5758691606061 537.1298620453545Q542.8243781069281 507.8018302362093 556.7885928186578 496.82767516662676Q570.7846166755166 485.82171095191507 599.730938743111 485.82171095191507Q628.7090699558347 485.82171095191507 650.9436624011628 491.54735707517546L650.9436624011628 491.54735707517546L639.0152329777035 528.1914922640423Q619.1027081268088 524.756104590086 607.0788512679619 524.756104590086Q595.054994409115 524.756104590086 586.3392886437075 525.9012338147381L586.3392886437075 525.9012338147381L584.5261673713417 537.1298620453545L599.858175323628 538.7203193018156Q623.2060878484788 541.2332417670243 633.0669228385384 549.8217109519151Q642.9277578285981 558.4101801368056 642.9277578285981 572.8515320254736L642.9277578285981 572.8515320254736Q642.9277578285981 587.5155479300462 636.7249745283993 603.070219898237L636.7249745283993 603.070219898237Q633.2895868544431 611.0861244708018 629.5042985840653 616.4936791427699Q625.7508194588167 621.8694246696089 619.8979367550394 625.6547129399866Q614.0450540512621 629.4081920652351 609.2418731367492 631.380359063247Q604.4386922222363 633.3207169161298 596.8681156814808 634.2431821248773L596.8681156814808 634.2431821248773Q586.3392886437075 635.8336393813385 570.7846166755166 635.8336393813385L570.7846166755166 635.8336393813385Q542.379050075119 635.8336393813385 519.2538015661727 629.8853292421735L519.2538015661727 629.8853292421735ZM725.1225888425147 489.2570986258713L795.6752727391349 489.2570986258713Q812.1524099160733 489.2570986258713 819.5957498763119 494.9827447491317Q827.0390898365504 500.70839087239216 827.0390898365504 512.6050111507222L827.0390898365504 512.6050111507222Q827.0390898365504 530.0364226815373 819.3730858604072 541.2332417670243Q811.7070818842642 552.4618699976406 800.7011176695523 555.2292656238833L800.7011176695523 555.2292656238833L800.4784536536479 556.5970588644399Q821.0907796973854 560.4777745702053 821.0907796973854 583.8574962401855L821.0907796973854 583.8574962401855Q821.0907796973854 604.469822283923 809.8621514667691 618.4340369956526Q798.665332381282 632.3982517073822 778.275670353449 632.3982517073822L778.275670353449 632.3982517073822L699.9297459001687 632.3982517073822L725.1225888425147 489.2570986258713ZM770.4824297967889 575.3644544906824L770.4824297967889 575.3644544906824L753.3054914270076 575.3644544906824L749.1703025602085 598.7441761606625L766.1245769140853 598.7441761606625Q771.8502230373456 598.7441761606625 774.8402826794927 594.1636592620542Q777.7985331765105 589.5831423634459 777.7985331765105 582.4578938544995Q777.7985331765105 575.3644544906824 770.4824297967889 575.3644544906824ZM776.9078771128925 520.6209157232868L776.9078771128925 520.6209157232868L763.1663264170672 520.6209157232868L759.2538015661726 541.9330429598673L772.7726882460931 541.9330429598673Q783.3015152838666 541.9330429598673 783.3015152838666 527.0463630393901L783.3015152838666 527.0463630393901Q783.3015152838666 520.6209157232868 776.9078771128925 520.6209157232868ZM694.9039009697512 621.3922874926706L693.0589705522561 631.6984505145393L595.9774596178625 621.3922874926706L694.9039009697512 621.3922874926706ZM702.6971415264112 577.2093849081774L700.8522111089162 587.5155479300462L603.7388910293934 577.2093849081774L702.6971415264112 577.2093849081774ZM706.5778572321767 555.2292656238833L704.7647359598109 565.5354286457521L607.6514158802879 555.2292656238833L706.5778572321767 555.2292656238833ZM710.4903820830713 533.2173371944598L708.6454516655762 543.5235002163286L611.5321315860533 533.2173371944598L710.4903820830713 533.2173371944598ZM714.1484337729321 511.23721791016555L712.5261673713417 521.5433809320343L615.444656436948 511.23721791016555L714.1484337729321 511.23721791016555ZM698.7846166755165 599.1895041924716L696.9714954031508 609.4956672143404L599.858175323628 599.1895041924716L698.7846166755165 599.1895041924716ZM718.0291494786975 489.2570986258713L716.2160282063317 499.5632616477401L619.3253721427134 489.2570986258713L718.0291494786975 489.2570986258713Z " fill="#533549" transform="matrix(0.33607679354732556,0,0,0.33607679354732556,-20.33524164763836,111.51882217056165)"/><path d="M976.8568395880415 543.5235002163286L976.8568395880415 543.5235002163286L879.7435195085186 533.2173371944598L978.4472968445027 533.2173371944598Q977.3021676198506 537.797854093068 976.8568395880415 543.5235002163286ZM886.1371576794927 511.23721791016555L984.6182709995722 511.23721791016555L981.182883325616 521.3207169161298L886.1371576794927 511.23721791016555ZM881.8111139419182 555.2292656238833L976.8568395880415 555.2292656238833Q977.3021676198506 561.4002397789528 978.6699608604073 565.5354286457521L978.6699608604073 565.5354286457521L881.8111139419182 555.2292656238833ZM1008.9204578782999 587.5155479300462L1008.9204578782999 587.5155479300462L887.7594240810832 577.2093849081774L986.4632014170672 577.2093849081774Q994.0337779578227 584.5254882878991 1008.9204578782999 587.5155479300462ZM903.314096049274 489.2570986258713L1001.7952093693535 489.2570986258713Q996.5467004230316 492.6924862998276 991.7435195085186 498.64079643899254L991.7435195085186 498.64079643899254L903.314096049274 489.2570986258713ZM966.0735393892343 609.273003198436L883.8468992301886 599.1895041924716L969.5089270631905 599.1895041924716L966.0735393892343 609.273003198436ZM958.7574360095126 631.4757864986346L879.9661835244232 621.3922874926706L962.1928236834689 621.3922874926706L958.7574360095126 631.4757864986346ZM966.5506765661727 629.8853292421735L979.3697620532503 592.0960648286547Q998.6142948564311 597.3445737749768 1014.5188674210435 597.3445737749768Q1030.4234399856557 597.3445737749768 1040.50693899162 595.9767805344201L1040.50693899162 595.9767805344201L1042.351869409115 584.5254882878991L1023.3300006218387 582.7123670155332Q1001.572545353449 580.6447725821337 992.5387481367492 572.8515320254736Q983.4731417749201 565.0582914688136 983.4731417749201 550.8714127411795L983.4731417749201 550.8714127411795Q983.4731417749201 544.6686294409806 984.8727441606061 537.1298620453545L984.8727441606061 537.1298620453545Q990.1212531069282 507.8018302362093 1004.0854678186578 496.82767516662676Q1018.0814916755166 485.82171095191507 1047.027813743111 485.82171095191507Q1076.0059449558348 485.82171095191507 1098.2405374011628 491.54735707517546L1098.2405374011628 491.54735707517546L1086.3121079777034 528.1914922640423Q1066.399583126809 524.756104590086 1054.375726267962 524.756104590086Q1042.351869409115 524.756104590086 1033.6361636437075 525.9012338147381L1033.6361636437075 525.9012338147381L1031.8230423713417 537.1298620453545L1047.155050323628 538.7203193018156Q1070.5029628484788 541.2332417670243 1080.3637978385384 549.8217109519151Q1090.224632828598 558.4101801368056 1090.224632828598 572.8515320254736L1090.224632828598 572.8515320254736Q1090.224632828598 587.5155479300462 1084.0218495283993 603.070219898237L1084.0218495283993 603.070219898237Q1080.586461854443 611.0861244708018 1076.8011735840653 616.4936791427699Q1073.0476944588167 621.8694246696089 1067.1948117550394 625.6547129399866Q1061.341929051262 629.4081920652351 1056.5387481367493 631.380359063247Q1051.7355672222363 633.3207169161298 1044.164990681481 634.2431821248773L1044.164990681481 634.2431821248773Q1033.6361636437075 635.8336393813385 1018.0814916755166 635.8336393813385L1018.0814916755166 635.8336393813385Q989.675925075119 635.8336393813385 966.5506765661727 629.8853292421735L966.5506765661727 629.8853292421735ZM1149.2942153335682 577.2093849081774L1147.4810940612024 587.5155479300462L1050.3677739816796 577.2093849081774L1149.2942153335682 577.2093849081774ZM1153.206740184463 555.2292656238833L1151.3618097669678 565.5354286457521L1054.248489687445 555.2292656238833L1153.206740184463 555.2292656238833ZM1157.0874558902283 533.2173371944598L1155.2425254727332 543.5235002163286L1058.1610145383397 533.2173371944598L1157.0874558902283 533.2173371944598ZM1160.7455075800892 511.23721791016555L1159.155050323628 521.5433809320343L1062.041730244105 511.23721791016555L1160.7455075800892 511.23721791016555ZM1049.6679727888368 599.1895041924716L1146.558628852455 599.1895041924716L1146.558628852455 603.77002109108Q1146.558628852455 607.6507367968455 1146.7812928683595 609.4956672143404L1146.7812928683595 609.4956672143404L1049.6679727888368 599.1895041924716ZM1155.4969986337671 631.6984505145393L1155.4969986337671 631.6984505145393L1058.3836785542442 621.3922874926706L1148.848887301759 621.3922874926706Q1151.3618097669678 627.8177348087739 1155.4969986337671 631.6984505145393ZM1190.996004597982 600.3346334171238L1202.4472968445027 600.3346334171238Q1208.6182709995724 600.3346334171238 1211.0357660293932 598.8396035960502Q1213.421451914085 597.3445737749768 1214.3439171228326 591.6189276517163L1214.3439171228326 591.6189276517163L1228.7852690115008 511.23721791016555L1267.2425254727332 511.23721791016555L1255.3459051944033 579.4996433574817Q1249.8429230870474 611.5632616477401 1237.5964022122957 623.3644544906824Q1225.3498813375445 635.1338381884956 1195.7991855124947 635.1338381884956L1195.7991855124947 635.1338381884956Q1172.19679982661 635.1338381884956 1162.8131020134888 628.1676354051953Q1153.4294042003676 621.1696234767659 1153.4294042003676 603.77002109108L1153.4294042003676 603.77002109108Q1153.4294042003676 594.1636592620542 1155.9423266655763 579.4996433574817L1155.9423266655763 579.4996433574817L1168.0934201049402 511.23721791016555L1206.5506765661726 511.23721791016555L1190.996004597982 600.3346334171238ZM1419.3220483355562 583.1576950473425L1398.7097222918187 632.3982517073822L1368.4910344190553 632.3982517073822L1365.055646745099 583.1576950473425L1363.910517520447 583.1576950473425L1352.9045533057354 632.3982517073822L1313.7474956516598 632.3982517073822L1341.4532610592144 511.23721791016555L1391.1391457510633 511.23721791016555L1394.5745334250196 568.0483511109608L1395.496998633767 568.0483511109608L1418.6222471427136 511.23721791016555L1468.3399409796916 511.23721791016555L1453.6759250751188 632.3982517073822L1414.2962034051388 632.3982517073822L1420.4671775602083 583.1576950473425L1419.3220483355562 583.1576950473425ZM1308.4671775602083 621.3922874926706L1306.1769191109042 631.6984505145393L1209.0635990313813 621.3922874926706L1308.4671775602083 621.3922874926706ZM1313.7474956516598 599.1895041924716L1311.234573186451 609.4956672143404L1214.3439171228326 599.1895041924716L1313.7474956516598 599.1895041924716ZM1318.7733405820773 577.2093849081774L1316.483082132773 587.5155479300462L1219.624235214284 577.2093849081774L1318.7733405820773 577.2093849081774ZM1323.57652149659 555.2292656238833L1321.0635990313815 565.5354286457521L1224.872744160606 555.2292656238833L1323.57652149659 555.2292656238833ZM1328.6341755721369 533.2173371944598L1326.3439171228326 543.5235002163286L1230.1530622520572 533.2173371944598L1328.6341755721369 533.2173371944598ZM1333.882684518459 511.23721791016555L1331.3697620532503 521.5433809320343L1235.4015711983793 511.23721791016555L1333.882684518459 511.23721791016555ZM1560.1729429677632 632.3982517073822L1520.0934201049402 632.3982517073822L1541.1510741804866 511.23721791016555L1581.4850702043436 511.23721791016555L1560.1729429677632 632.3982517073822ZM1514.3677739816796 621.3922874926706L1512.5228435641845 631.6984505145393L1415.4413326297908 621.3922874926706L1514.3677739816796 621.3922874926706ZM1522.1610145383395 577.2093849081774L1520.3160841208446 587.5155479300462L1423.2027640413216 577.2093849081774L1522.1610145383395 577.2093849081774ZM1526.0417302441049 555.2292656238833L1524.2286089717393 565.5354286457521L1427.1152888922163 555.2292656238833L1526.0417302441049 555.2292656238833ZM1529.9542550949998 533.2173371944598L1528.1093246775047 543.5235002163286L1430.9960045979817 533.2173371944598L1529.9542550949998 533.2173371944598ZM1533.6123067848605 511.23721791016555L1531.99004038327 521.5433809320343L1434.9085294488764 511.23721791016555L1533.6123067848605 511.23721791016555ZM1518.248489687445 599.1895041924716L1516.4353684150792 609.4956672143404L1419.3220483355562 599.1895041924716L1518.248489687445 599.1895041924716ZM1735.1550503236278 511.23721791016555L1728.952267023429 545.5910946497281L1704.2365612580215 545.5910946497281L1689.1272173216396 632.3982517073822L1648.7932212977828 632.3982517073822L1663.934374379294 545.5910946497281L1638.4870582759143 545.5910946497281L1644.689841576113 511.23721791016555L1735.1550503236278 511.23721791016555ZM1643.7673763673654 621.3922874926706L1641.9224459498703 631.6984505145393L1544.8409350154768 621.3922874926706L1643.7673763673654 621.3922874926706ZM1651.5606169240255 577.2093849081774L1649.7156865065306 587.5155479300462L1552.6023664270076 577.2093849081774L1651.5606169240255 577.2093849081774ZM1655.4413326297908 555.2292656238833L1653.628211357425 565.5354286457521L1556.5148912779023 555.2292656238833L1655.4413326297908 555.2292656238833ZM1633.4612133454966 533.2173371944598L1631.6162829280017 543.5235002163286L1534.534771993608 533.2173371944598L1633.4612133454966 533.2173371944598ZM1637.1192650353576 511.23721791016555L1635.5288077788962 521.5433809320343L1538.4154876993734 511.23721791016555L1637.1192650353576 511.23721791016555ZM1647.6480920731308 599.1895041924716L1645.834970800765 609.4956672143404L1548.7216507212422 599.1895041924716L1647.6480920731308 599.1895041924716ZM1799.9502789518585 489.2570986258713L1870.5029628484788 489.2570986258713Q1886.980100025417 489.2570986258713 1894.4234399856557 494.9827447491317Q1901.8667799458942 500.70839087239216 1901.8667799458942 512.6050111507222L1901.8667799458942 512.6050111507222Q1901.8667799458942 530.0364226815373 1894.200775969751 541.2332417670243Q1886.534771993608 552.4618699976406 1875.5288077788964 555.2292656238833L1875.5288077788964 555.2292656238833L1875.3061437629915 556.5970588644399Q1895.9184698067293 560.4777745702053 1895.9184698067293 583.8574962401855L1895.9184698067293 583.8574962401855Q1895.9184698067293 604.469822283923 1884.6898415761132 618.4340369956526Q1873.4930224906257 632.3982517073822 1853.103360462793 632.3982517073822L1853.103360462793 632.3982517073822L1774.7574360095125 632.3982517073822L1799.9502789518585 489.2570986258713ZM1845.3101199061327 575.3644544906824L1845.3101199061327 575.3644544906824L1828.1331815363517 575.3644544906824L1823.997992669552 598.7441761606625L1840.9522670234292 598.7441761606625Q1846.6779131466894 598.7441761606625 1849.6679727888368 594.1636592620542Q1852.6262232858546 589.5831423634459 1852.6262232858546 582.4578938544995Q1852.6262232858546 575.3644544906824 1845.3101199061327 575.3644544906824ZM1851.735567222236 520.6209157232868L1851.735567222236 520.6209157232868L1837.9940165264113 520.6209157232868L1834.0814916755164 541.9330429598673L1847.600378355437 541.9330429598673Q1858.1292053932104 541.9330429598673 1858.1292053932104 527.0463630393901L1858.1292053932104 527.0463630393901Q1858.1292053932104 520.6209157232868 1851.735567222236 520.6209157232868ZM1769.731591079095 621.3922874926706L1767.8866606616 631.6984505145393L1670.8051497272065 621.3922874926706L1769.731591079095 621.3922874926706ZM1777.5248316357552 577.2093849081774L1775.6799012182598 587.5155479300462L1678.5665811387373 577.2093849081774L1777.5248316357552 577.2093849081774ZM1781.4055473415203 555.2292656238833L1779.5924260691547 565.5354286457521L1682.4791059896318 555.2292656238833L1781.4055473415203 555.2292656238833ZM1785.3180721924152 533.2173371944598L1783.4731417749201 543.5235002163286L1686.3598216953972 533.2173371944598L1785.3180721924152 533.2173371944598ZM1788.976123882276 511.23721791016555L1787.3538574806855 521.5433809320343L1690.272346546292 511.23721791016555L1788.976123882276 511.23721791016555ZM1773.6123067848605 599.1895041924716L1771.7991855124947 609.4956672143404L1674.685865432972 599.1895041924716L1773.6123067848605 599.1895041924716ZM1792.8568395880413 489.2570986258713L1791.0437183156757 499.5632616477401L1694.1530622520575 489.2570986258713L1792.8568395880413 489.2570986258713ZM2054.8687680174653 632.3982517073822L2016.379702411103 632.3982517073822L2023.5049509200492 590.4737984270641L1997.8349708007652 590.4737984270641L1990.5188674210433 632.3982517073822L1952.0298018146816 632.3982517073822L1973.1192650353576 511.23721791016555L2011.799185512495 511.23721791016555L2004.2604181168683 553.1616711904836L2030.121253106928 553.1616711904836L2037.4691656317789 511.23721791016555L2076.180895254045 511.23721791016555L2054.8687680174653 632.3982517073822ZM1946.304155691421 621.3922874926706L1944.491034419055 631.6984505145393L1847.3777143395325 621.3922874926706L1946.304155691421 621.3922874926706ZM1954.097396248081 577.2093849081774L1952.2524658305863 587.5155479300462L1855.1709548961924 577.2093849081774L1954.097396248081 577.2093849081774ZM1957.9781119538468 555.2292656238833L1956.1649906814807 565.5354286457521L1859.051670601958 555.2292656238833L1957.9781119538468 555.2292656238833ZM1961.8906368047412 533.2173371944598L1960.0457063872461 543.5235002163286L1862.9323863077232 533.2173371944598L1961.8906368047412 533.2173371944598ZM1965.548688494602 511.23721791016555L1963.9582312381406 521.5433809320343L1866.8449111586178 511.23721791016555L1965.548688494602 511.23721791016555ZM1950.2166805423155 599.1895041924716L1948.3717501248204 609.4956672143404L1851.258430045298 599.1895041924716L1950.2166805423155 599.1895041924716ZM2242.6699608604067 632.3982517073822L2202.5904379975846 632.3982517073822L2201.667972788837 613.8535200970442L2172.8170781566296 613.8535200970442L2165.7236387928124 632.3982517073822L2126.0894439617987 632.3982517073822L2176.952267023429 511.23721791016555L2233.731591079095 511.23721791016555L2242.6699608604067 632.3982517073822ZM2184.968171595993 581.0901006139428L2201.667972788837 581.0901006139428L2201.667972788837 546.2908958425711L2198.455249130785 546.2908958425711L2184.968171595993 581.0901006139428ZM2123.131193464781 621.3922874926706L2118.7733405820773 631.4757864986346L2024.8727441606063 621.3922874926706L2123.131193464781 621.3922874926706ZM2132.5148912779023 599.1895041924716L2128.1570383951985 609.273003198436L2034.256441973727 599.1895041924716L2132.5148912779023 599.1895041924716ZM2141.6759250751184 577.2093849081774L2137.5407362083197 587.2928839141417L2043.6401397868483 577.2093849081774L2141.6759250751184 577.2093849081774ZM2151.0596228882405 555.2292656238833L2146.7017700055367 565.2809554847182L2053.0238375999697 555.2292656238833L2151.0596228882405 555.2292656238833ZM2160.2206566854566 533.2173371944598L2156.085467818658 543.300836200424L2062.43934455822 533.2173371944598L2160.2206566854566 533.2173371944598ZM2169.3816904826735 511.23721791016555L2165.246501615874 521.0980529002252L2071.823042371341 511.23721791016555L2169.3816904826735 511.23721791016555ZM2398.630199428996 511.23721791016555L2392.4592252739258 545.5910946497281L2367.711710363389 545.5910946497281L2352.602366427008 632.3982517073822L2312.3001795482796 632.3982517073822L2327.409523484662 545.5910946497281L2301.9940165264115 545.5910946497281L2308.164990681481 511.23721791016555L2398.630199428996 511.23721791016555ZM2307.242525472733 621.3922874926706L2305.4294042003676 631.6984505145393L2208.3160841208446 621.3922874926706L2307.242525472733 621.3922874926706ZM2315.035766029393 577.2093849081774L2313.2226447570274 587.5155479300462L2216.1093246775044 577.2093849081774L2315.035766029393 577.2093849081774ZM2318.9482908802875 555.2292656238833L2317.103360462793 565.5354286457521L2219.99004038327 555.2292656238833L2318.9482908802875 555.2292656238833ZM2296.936362450864 533.2173371944598L2295.1232411784986 543.5235002163286L2198.0099210989756 533.2173371944598L2296.936362450864 533.2173371944598ZM2300.6262232858544 511.23721791016555L2299.003956884264 521.5433809320343L2201.890636804741 511.23721791016555L2300.6262232858544 511.23721791016555ZM2311.1550503236276 599.1895041924716L2309.310119906133 609.4956672143404L2212.19679982661 599.1895041924716L2311.1550503236276 599.1895041924716ZM2478.343917122833 632.3982517073822L2438.26439426001 632.3982517073822L2459.3220483355562 511.23721791016555L2499.6242352142835 511.23721791016555L2478.343917122833 632.3982517073822ZM2432.538748136749 621.3922874926706L2430.693817719254 631.6984505145393L2333.580497639731 621.3922874926706L2432.538748136749 621.3922874926706ZM2440.3319886934087 577.2093849081774L2438.487058275914 587.5155479300462L2341.373738196391 577.2093849081774L2440.3319886934087 577.2093849081774ZM2444.212704399175 555.2292656238833L2442.3677739816794 565.5354286457521L2345.2862630472855 555.2292656238833L2444.212704399175 555.2292656238833ZM2448.0934201049404 533.2173371944598L2446.280298832574 543.5235002163286L2349.166978753051 533.2173371944598L2448.0934201049404 533.2173371944598ZM2451.7832809399297 511.23721791016555L2450.1610145383393 521.5433809320343L2353.047694458817 511.23721791016555L2451.7832809399297 511.23721791016555ZM2436.4194638425142 599.1895041924716L2434.6063425701486 609.4956672143404L2337.4930224906257 599.1895041924716L2436.4194638425142 599.1895041924716ZM2664.0775155323754 632.3982517073822L2623.9979926695523 632.3982517073822L2623.0755274608046 613.8535200970442L2594.2246328285983 613.8535200970442L2587.131193464781 632.3982517073822L2547.4969986337674 632.3982517073822L2598.359821695397 511.23721791016555L2655.1391457510636 511.23721791016555L2664.0775155323754 632.3982517073822ZM2606.375726267962 581.0901006139428L2623.0755274608046 581.0901006139428L2623.0755274608046 546.2908958425711L2619.8628038027528 546.2908958425711L2606.375726267962 581.0901006139428ZM2544.538748136749 621.3922874926706L2540.180895254045 631.4757864986346L2446.280298832574 621.3922874926706L2544.538748136749 621.3922874926706ZM2553.92244594987 599.1895041924716L2549.5645930671662 609.273003198436L2455.663996645695 599.1895041924716L2553.92244594987 599.1895041924716ZM2563.083479747087 577.2093849081774L2558.9482908802875 587.2928839141417L2465.047694458817 577.2093849081774L2563.083479747087 577.2093849081774ZM2572.4671775602083 555.2292656238833L2568.1093246775044 565.2809554847182L2474.4313922719375 555.2292656238833L2572.4671775602083 555.2292656238833ZM2581.6282113574252 533.2173371944598L2577.4930224906257 543.300836200424L2483.8468992301887 533.2173371944598L2581.6282113574252 533.2173371944598ZM2590.7892451546422 511.23721791016555L2586.6540562878426 521.0980529002252L2493.23059704331 511.23721791016555L2590.7892451546422 511.23721791016555Z " fill="#f6b042" transform="matrix(0.33607679354732556,0,0,0.33607679354732556,-20.33524164763836,111.51882217056165)"/></g></svg>